<?xml version="1.0" encoding="UTF-8" standalone="no"?>
<svg width="333px" height="209px" viewBox="0 0 333 209" version="1.1" xmlns="http://www.w3.org/2000/svg" xmlns:xlink="http://www.w3.org/1999/xlink">
    <!-- Generator: Sketch 39.1 (31720) - http://www.bohemiancoding.com/sketch -->
    <title>Page 1</title>
    <desc>Created with Sketch.</desc>
    <defs>
        <polygon id="path-1" points="122.685554 205.44177 122.685554 0.125214881 0.681375613 0.125214881 0.681375613 205.44177"></polygon>
        <polygon id="path-3" points="0.565606341 125.941463 53.374638 125.941463 53.374638 0.788506585 0.565606341 0.788506585"></polygon>
    </defs>
    <g id="Sender-UX" stroke="none" stroke-width="1" fill="none" fill-rule="evenodd">
        <g id="Base" transform="translate(-20.000000, -185.000000)">
            <g id="Page-1" transform="translate(22.000000, 185.000000)">
                <path d="M172.210097,72.5413141 L172.17296,66.9175434 C172.16085,65.0954288 171.209831,63.5009776 169.783301,62.5838654 L169.808328,69.0997215 C169.81075,69.6971361 169.327975,70.183141 168.73056,70.1855629 C168.67324,70.1855629 168.615921,70.1815263 168.560216,70.1726459 C168.043533,70.0935288 167.64714,69.6478898 167.644719,69.1077946 L167.61727,61.8039971 C167.396872,61.7765483 167.174053,61.7587873 166.947197,61.760402 C166.583097,61.7628239 166.228684,61.8031898 165.886382,61.8766556 L165.913831,69.1255556 C165.916253,69.7229702 165.434284,70.2089751 164.83687,70.2113971 C164.778743,70.2113971 164.721423,70.2073605 164.666526,70.19848 C164.149843,70.1193629 163.752643,69.6737239 163.751028,69.1336288 L163.726809,62.9108288 C162.537631,63.8699215 161.778753,65.3392385 161.790055,66.9861654 L161.827192,72.6099361 C161.84576,75.4775263 164.186172,77.7864532 167.052955,77.7670776 C169.920545,77.7485093 172.229472,75.4089044 172.210097,72.5413141" id="Fill-1" fill="#F2AB43"></path>
                <path d="M164.666526,70.1986415 C164.722231,70.207522 164.778743,70.2115585 164.83687,70.2115585 C165.434284,70.2091366 165.916253,69.7231317 165.913831,69.1257171 L165.886382,61.8760098 C165.079872,62.0495829 164.346021,62.411261 163.726809,62.9109902 L163.751028,69.1337902 C163.752643,69.673078 164.149843,70.1187171 164.666526,70.1986415" id="Fill-3" fill="#B7743C"></path>
                <path d="M168.56062,70.172888 C168.616325,70.1817685 168.672837,70.1858051 168.730964,70.1858051 C169.328378,70.1833832 169.810347,69.6973783 169.807925,69.0999637 L169.782898,62.5841076 C169.143503,62.1731832 168.40723,61.90031 167.616866,61.803432 L167.645122,69.1080368 C167.646737,69.6473246 168.043937,70.0929637 168.56062,70.172888" id="Fill-5" fill="#B7743C"></path>
                <path d="M158.691007,70.5908361 L165.979466,76.3849507" id="Stroke-7" stroke="#F2AB43" stroke-width="3.751" stroke-linecap="round" stroke-linejoin="round"></path>
                <path d="M170.77178,73.7239529 C170.77178,73.7239529 170.784698,73.7772359 170.808917,73.8797651 C170.837173,73.9701846 170.848476,74.1615188 170.856549,74.3940261 C170.88642,74.8985993 170.840402,75.4952066 170.72092,76.2976798 C170.558649,77.064631 170.306766,77.9986968 169.817532,78.9618261 C169.695627,79.2040212 169.577759,79.4583261 169.441322,79.7110163 C169.287932,79.9515968 169.131312,80.2002505 168.969849,80.4545554 C168.633198,80.95267 168.332876,81.5202139 167.9163,82.0288237 C167.509412,82.5446993 167.085571,83.0823724 166.647198,83.6394212 C166.191871,84.1795163 165.660656,84.6784383 165.14478,85.2209554 C164.882402,85.4865627 164.615988,85.7562066 164.346344,86.0298871 C164.05248,86.2728895 163.755388,86.5183139 163.455066,86.7669676 C162.847156,87.2545871 162.250549,87.7906456 161.595815,88.2596968 C160.919283,88.6932261 160.232256,89.1348285 159.536349,89.5820822 C159.184359,89.7960212 158.846093,90.0446749 158.477149,90.2335871 C158.105783,90.4176554 157.73361,90.6033383 157.359015,90.7890212 C156.610632,91.1587724 155.85579,91.5309456 155.098527,91.9047334 C154.322695,92.2252383 153.529102,92.5005334 152.740354,92.7895529 C151.946761,93.0608115 151.166893,93.3861602 150.366841,93.6073651 C149.562754,93.8083871 148.761895,94.0086017 147.967495,94.2072017 C147.172288,94.3993432 146.387576,94.6132822 145.6069,94.7795895 C144.819766,94.8942285 144.041512,95.0072529 143.276983,95.1186627 C141.74631,95.3148407 140.276185,95.6167773 138.869032,95.6401895 C137.466722,95.7055822 136.141107,95.7677456 134.916407,95.8250651 C133.694129,95.9211359 132.578417,95.81457 131.589454,95.8024602 C130.602105,95.7677456 129.740698,95.7370676 129.031066,95.7112334 C127.615839,95.6482627 126.807715,95.6119334 126.807715,95.6119334 C125.995554,95.5747968 125.365846,94.8869627 125.402176,94.0748017 C125.43689,93.314309 126.041571,92.7152798 126.784302,92.6708773 L126.898941,92.6644188 C126.898941,92.6644188 127.682846,92.6208237 129.055285,92.5441285 C129.73989,92.5118359 130.57062,92.4730846 131.524061,92.4286822 C132.474273,92.369748 133.555271,92.3947749 134.710541,92.2131285 C135.867427,92.0726554 137.120383,91.9208798 138.445998,91.7602237 C139.782107,91.6706115 141.135171,91.3057041 142.554434,91.04817 C143.260837,90.9085041 143.979349,90.7664163 144.707549,90.6227139 C145.422024,90.4402602 146.130849,90.2134041 146.85259,90.0099602 C147.572717,89.8008651 148.297688,89.5909627 149.025888,89.3802529 C149.746015,89.1509749 150.42739,88.8272407 151.130563,88.5575968 C151.824856,88.2669627 152.538524,88.0175017 153.2199,87.7155651 C153.876249,87.3700334 154.530983,87.0261163 155.179259,86.6854285 C155.5038,86.515892 155.827534,86.3471627 156.148846,86.180048 C156.468544,86.0088968 156.748683,85.78527 157.04739,85.5931285 C157.636732,85.1967359 158.218807,84.8051871 158.790388,84.4200968 C159.339363,84.0091724 159.834249,83.5554602 160.344473,83.1413066 C160.597971,82.9314041 160.847432,82.7239237 161.094471,82.5188651 C161.315676,82.2895871 161.533651,82.062731 161.748398,81.8382968 C162.16901,81.3837773 162.615456,80.970431 162.9844,80.5231773 C163.338812,80.0646212 163.681922,79.6222115 164.0105,79.1975627 C164.354417,78.7817944 164.578851,78.3208163 164.851724,77.9179651 C164.980895,77.7120993 165.107644,77.512692 165.230356,77.3181285 C165.336922,77.1162993 165.440259,76.9209285 165.541173,76.731209 C165.988427,75.990092 166.353334,75.3466602 166.711783,74.8210968 C167.039554,74.3044139 167.347949,73.8628115 167.535246,73.6367627 C167.632932,73.507592 167.721737,73.4228237 167.779863,73.3227163 C167.840412,73.2355261 167.871898,73.1903163 167.871898,73.1903163 L167.885622,73.1709407 C168.395846,72.4427407 169.399341,72.265131 170.128349,72.7753554 C170.464193,73.0102846 170.683783,73.3542017 170.77178,73.7239529" id="Fill-9" fill="#F2AB43"></path>
                <g id="Group-21" transform="translate(178.417073, 59.859332)">
                    <path d="M0.30500439,10.0477068 L1.16398976,4.48932878 C1.44251415,2.68901171 2.61716049,1.25118 4.16155805,0.552850732 L3.18470439,6.99443366 C3.0950922,7.58538976 3.50117268,8.13678732 4.09132146,8.2255922 C4.14864098,8.23447268 4.20596049,8.23850927 4.26166537,8.23850927 C4.78480683,8.23528 5.24255561,7.85261171 5.32328732,7.31897512 L6.41881659,0.0975239024 C6.64082878,0.102367805 6.86364829,0.116899512 7.08808244,0.152421463 C7.44814585,0.207319024 7.79287024,0.299353171 8.12064098,0.422065366 L7.03318488,7.58942634 C6.94276537,8.17957512 7.34965317,8.73178 7.93980195,8.82058488 C7.99712146,8.82946537 8.05444098,8.83350195 8.11014585,8.83350195 C8.63328732,8.83027268 9.0910361,8.44760439 9.1717678,7.9139678 L10.1050263,1.76140439 C11.1416215,2.88357512 11.6768727,4.44896293 11.4257971,6.07570683 L10.5668117,11.6340849 C10.1284385,14.4677678 7.47640195,16.4093654 4.64271902,15.9717995 C1.8090361,15.5334263 -0.13336878,12.8813898 0.30500439,10.0477068" id="Fill-11" fill="#A3BED6"></path>
                    <path d="M8.11006512,8.83342122 C8.05436024,8.83342122 7.99704073,8.82938463 7.93972122,8.82131146 C7.34957244,8.73169927 6.94349195,8.18030171 7.03310415,7.58934561 L8.12056024,0.421984634 C8.89235537,0.711004146 9.5656578,1.1768261 10.1049456,1.76132366 L9.17168707,7.91388707 C9.09095537,8.44752366 8.63320659,8.83019195 8.11006512,8.83342122" id="Fill-13" fill="#7AA1BE"></path>
                    <path d="M4.26158463,8.23842854 C4.20587976,8.23842854 4.14856024,8.23439195 4.09124073,8.22631878 C3.50109195,8.13670659 3.09501146,7.58530902 3.18462366,6.99435293 L4.16147732,0.55277 C4.85496268,0.239530976 5.62272122,0.0772602439 6.41873585,0.0974431707 L5.32320659,7.31889439 C5.24247488,7.85253098 4.7847261,8.23519927 4.26158463,8.23842854" id="Fill-15" fill="#7AA1BE"></path>
                    <path d="M13.964002,10.0952578 L5.90617024,14.7615505" id="Stroke-17" stroke="#A3BED6" stroke-width="3.751" stroke-linecap="round" stroke-linejoin="round"></path>
                    <path d="M4.9767061,10.9074188 C4.9767061,10.9074188 5.00819146,10.9526285 5.06874024,11.0390115 C5.12686707,11.1391188 5.21647927,11.2238871 5.31335732,11.3538651 C5.50065488,11.5799139 5.80905,12.0215163 6.13682073,12.537392 C6.49526951,13.0637627 6.86017683,13.7071944 7.30743049,14.4475041 C7.4075378,14.6372237 7.51168171,14.8334017 7.61824756,15.0344237 C7.74095976,15.2289871 7.86770854,15.4292017 7.99687927,15.6342602 C8.26975244,16.0371115 8.49418659,16.4988968 8.83729634,16.9146651 C9.16668171,17.3393139 9.50979146,17.7817237 9.86420366,18.2394724 C10.2331476,18.6875334 10.6795939,19.1000724 11.1002061,19.5553993 C11.3149524,19.7790261 11.532928,20.0058822 11.7541329,20.2359676 C12.001172,20.4410261 12.2506329,20.6485066 12.5033232,20.858409 C13.0143549,21.2725627 13.5092402,21.7254676 14.0582159,22.1371993 C14.6306037,22.5222895 15.211872,22.9138383 15.8004061,23.3094237 C16.0999207,23.5015651 16.3800598,23.7259993 16.6997573,23.8963432 C17.0210695,24.0642651 17.3448037,24.2329944 17.6693451,24.4017237 C18.3176207,24.7432188 18.9723549,25.0871359 19.6287037,25.4318602 C20.3100793,25.7346041 21.0237476,25.9840651 21.7180402,26.273892 C22.4212134,26.5443432 23.102589,26.8680773 23.8227159,27.096548 C24.5509159,27.3080651 25.2766939,27.5179676 25.9960134,27.7262554 C26.7177549,27.9305066 27.4273866,28.1565554 28.1410549,28.3398163 C28.8684476,28.4835188 29.5877671,28.6247993 30.2941695,28.7644651 C31.7142402,29.0228066 33.0664963,29.3869066 34.4026061,29.4765188 C35.7282207,29.6371749 36.9811768,29.7897578 38.1380622,29.9294237 C39.2933329,30.1118773 40.3743305,30.0860432 41.3245427,30.1457846 C42.2779841,30.1901871 43.1095207,30.2289383 43.7933183,30.2604237 C45.1657573,30.3371188 45.9496622,30.3815212 45.9496622,30.3815212 L46.0570354,30.3871724 C46.8691963,30.4323822 47.4908305,31.1274822 47.4448134,31.9396432 C47.4028329,32.6993285 46.784428,33.2927066 46.040889,33.3282285 C46.040889,33.3282285 45.2327646,33.3645578 43.8175378,33.4283359 C43.1079061,33.4533627 42.2473061,33.4840407 41.25915,33.5195627 C40.2701866,33.5316724 39.1544744,33.6382383 37.9321963,33.5413602 C36.7074963,33.4840407 35.3818817,33.4218773 33.979572,33.3564846 C32.5732256,33.3330724 31.1022939,33.0319432 29.5716207,32.8357651 C28.8070915,32.7243554 28.0288378,32.611331 27.2417037,32.496692 C26.461028,32.3295773 25.6763159,32.1164456 24.8811085,31.9243041 C24.0867085,31.7257041 23.28585,31.5254895 22.4817622,31.3244676 C21.6825183,31.1024554 20.9018427,30.7771066 20.10825,30.505848 C19.3195012,30.2168285 18.5259085,29.9415334 17.7508841,29.6218359 C16.9928134,29.248048 16.237972,28.8750676 15.489589,28.5061237 C15.1149939,28.3196334 14.7428207,28.1347578 14.3714549,27.9498822 C14.002511,27.7617773 13.6642451,27.5131237 13.3122549,27.2983773 C12.6163476,26.851931 11.9293207,26.4103285 11.252789,25.975992 C10.5980549,25.5069407 10.0014476,24.9708822 9.3935378,24.48407 C9.09321585,24.2354163 8.79612317,23.9891846 8.50225976,23.7461822 C8.23261585,23.473309 7.96620122,23.2036651 7.70382317,22.9372505 C7.18794756,22.3947334 6.65673293,21.8966188 6.20221341,21.3557163 C5.76303293,20.7994749 5.33919146,20.2618017 4.93230366,19.7451188 C4.51653537,19.2373163 4.2154061,18.6697724 3.87875488,18.1716578 C3.71809878,17.9165456 3.56067195,17.6686993 3.40728171,17.4273115 C3.27084512,17.1746212 3.15297683,16.9203163 3.03107195,16.6789285 C2.5418378,15.7157993 2.28995488,14.7817334 2.12768415,14.0139749 C2.00820122,13.212309 1.96218415,12.6157017 1.99124756,12.1111285 C2.00012805,11.8778139 2.01143049,11.6864798 2.03968659,11.5960602 C2.0639061,11.493531 2.07682317,11.4410554 2.07682317,11.4410554 C2.28107439,10.5756115 3.14894024,10.0395529 4.01438415,10.2438041 C4.41319878,10.3382602 4.74258415,10.5739968 4.96136707,10.8856212 L4.9767061,10.9074188 Z" id="Fill-19" fill="#A3BED6"></path>
                </g>
                <g id="Group-24" transform="translate(208.287805, 0.925185)">
                    <mask id="mask-2" fill="white">
                        <use xlink:href="#path-1"></use>
                    </mask>
                    <g id="Clip-23"></g>
                    <path d="M62.729021,202.729185 L101.02895,94.5769529 L115.538053,82.327531 L122.599655,22.9751944 C123.396477,16.2784993 118.569528,10.1477334 111.87364,9.35091146 L35.0582283,0.211274878 C28.3623405,-0.585547073 22.2315746,4.24140171 21.4347527,10.9372895 L0.76743561,184.63075 C-0.0293863415,191.326638 4.79756244,197.457404 11.4934502,198.254226 L71.8969137,205.44177 L62.729021,202.729185 Z" id="Fill-22" fill="#A2BFD7" mask="url(#mask-2)"></path>
                </g>
                <g id="Group-27" transform="translate(270.451220, 82.464210)">
                    <mask id="mask-4" fill="white">
                        <use xlink:href="#path-3"></use>
                    </mask>
                    <g id="Clip-26"></g>
                    <path d="M0.565606341,121.19016 L9.73349902,123.902746 L26.1454478,125.855646 C32.8413356,126.652468 38.9721015,121.825519 39.7689234,115.128824 L53.374638,0.788506585 L38.8655356,13.0379285 L0.565606341,121.19016 Z" id="Fill-25" fill="#80ABCB" mask="url(#mask-4)"></path>
                </g>
                <path d="M287.771158,207.269536 L210.956553,198.129092 C204.259858,197.333077 199.432909,191.202311 200.229731,184.505616 L220.897048,10.8129627 C221.69387,4.11626756 227.824636,-0.71068122 234.521331,0.0861407317 L311.335936,9.22658463 C318.031824,10.0234066 322.858772,16.1541724 322.06195,22.8500602 L301.394633,196.543521 C300.597811,203.239409 294.467046,208.066358 287.771158,207.269536" id="Fill-28" fill="#DCDEE1"></path>
                <path d="M280.282565,18.0812383 L262.62977,15.9805993 C261.841021,15.8869505 261.27267,15.165209 261.366319,14.3764602 L261.366319,14.3764602 C261.459968,13.5877115 262.181709,13.0193602 262.970458,13.113009 L280.62406,15.213648 C281.412002,15.3072968 281.98116,16.0298456 281.886704,16.8177871 C281.793056,17.6065359 281.071314,18.1748871 280.282565,18.0812383" id="Fill-30" fill="#A2BFD7"></path>
                <path d="M258.041545,191.186407 C258.51544,187.206334 255.672877,183.59682 251.692804,183.122924 C247.713538,182.649837 244.103216,185.491593 243.629321,189.471666 C243.156233,193.450932 245.998796,197.061254 249.978062,197.535149 C253.958135,198.008237 257.56765,195.16648 258.041545,191.186407" id="Fill-32" fill="#01AEAE"></path>
                <path d="M295.422909,182.968323 L209.220821,172.71136 C208.262536,172.597528 207.577931,171.728048 207.691763,170.769762 L225.397033,21.9683085 C225.511672,21.0100232 226.380346,20.3262256 227.338631,20.4400573 L313.541526,30.6970207 C314.499811,30.8108524 315.184416,31.6803329 315.069777,32.6386183 L297.364507,181.439265 C297.250675,182.39755 296.381194,183.082155 295.422909,182.968323" id="Fill-34" fill="#2C466D"></path>
                <path d="M237.7397,55.1104505 C237.690454,55.9403724 236.9784,56.573309 236.148479,56.5240627 C235.318557,56.4748163 234.68562,55.7619554 234.734866,54.9328407 C234.784113,54.1029188 235.496166,53.4699822 236.326088,53.5192285 C237.15601,53.5684749 237.788947,54.2805285 237.7397,55.1104505" id="Fill-36" fill="#FEFEFE"></path>
                <path d="M271.583401,57.1138885 C271.534155,57.9438105 270.822101,58.5767471 269.992179,58.5275007 C269.162257,58.4782544 268.52932,57.7653934 268.578567,56.9362788 C268.627813,56.1063568 269.339867,55.4734202 270.169789,55.5226666 C270.999711,55.5719129 271.632647,56.2839666 271.583401,57.1138885" id="Fill-38" fill="#FEFEFE"></path>
                <path d="M257.396095,60.3827961 C256.498359,61.2183693 255.031463,61.7156766 253.407141,61.6196059 C251.790085,61.5243424 250.397463,60.8623424 249.602256,59.9339278" id="Stroke-40" stroke="#FEFEFE" stroke-width="2.068" stroke-linecap="round"></path>
                <path d="M137.440403,106.615584 C137.269252,104.795892 135.979967,103.429911 134.560703,103.564733 L124.334418,104.534321 L54.3933107,111.163201 C57.5555717,116.15888 65.5552766,127.987689 72.8340473,132.164748 L124.801855,127.238499 L127.369123,126.995497 C133.901933,126.376284 138.604555,119.018397 137.819035,110.644904 L137.440403,106.615584 Z" id="Fill-42" fill="#F3AB44"></path>
                <path d="M54.3935529,111.163605 L19.8605651,114.437276 L9.63427976,115.406056 C8.21420902,115.540878 7.20183341,117.124834 7.37298463,118.944527 L7.75080902,122.973847 C8.53713585,131.347339 14.5258139,137.692044 21.059431,137.072025 L33.8562139,135.859434 L72.8334822,132.164344 C65.5555188,127.988093 57.5558139,116.158476 54.3935529,111.163605" id="Fill-44" fill="#EAA346"></path>
                <path d="M132.461437,67.6369437 C125.589554,35.8641729 95.8746344,22.9123851 61.9729685,26.1085534 C46.0106954,27.6133924 31.7663929,32.4516437 21.0775149,40.5393461 C18.2252637,51.7400632 15.7468002,73.6272363 35.450988,84.5179437 L126.442081,75.9393924 C130.54083,75.5534949 133.331725,71.660612 132.461437,67.6369437" id="Fill-46" fill="#F3AB44"></path>
                <path d="M21.0775149,40.5391039 C9.06221488,49.6303015 1.53963439,62.8291283 1.13678317,80.0282112 C1.04071244,84.1398771 4.50813927,87.4353454 8.60285146,87.0486405 L35.450988,84.5177015 C15.7468002,73.6269941 18.2252637,51.7406283 21.0775149,40.5391039" id="Fill-48" fill="#EAA346"></path>
                <path d="M97.6339398,100.990683 C98.0053056,104.928776 88.6404276,109.031561 76.7171617,110.156154 C64.7947032,111.27994 54.8283739,108.999269 54.457008,105.061176 C54.0856422,101.123891 63.4505202,97.020298 75.3729788,95.8965127 C87.2962446,94.77192 97.2625739,97.0525907 97.6339398,100.990683 L97.6339398,100.990683 Z" id="Stroke-50" stroke="#E9BDD8" stroke-width="6.892" stroke-linecap="round"></path>
                <path d="M61.7930176,104.71742 C62.1643834,108.654706 52.7995054,112.758299 40.8762395,113.882891 C28.953781,115.006677 18.9874517,112.726006 18.6160859,108.787913 C18.24472,104.850628 27.609598,100.747035 39.5320566,99.6232498 C51.4553224,98.4986571 61.4216517,100.779328 61.7930176,104.71742 L61.7930176,104.71742 Z" id="Stroke-52" stroke="#E9BDD8" stroke-width="6.892" stroke-linecap="round"></path>
                <path d="M133.101316,97.6469376 C133.472682,101.58503 124.107804,105.687816 112.184538,106.812408 C100.26208,107.936194 90.2957505,105.655523 89.9243846,101.71743 C89.5530188,97.7801449 98.9178968,93.6765522 110.840355,92.5527668 C122.763621,91.4281741 132.72995,93.7088449 133.101316,97.6469376 L133.101316,97.6469376 Z" id="Stroke-54" stroke="#E9BDD8" stroke-width="6.892" stroke-linecap="round"></path>
                <path d="M0.571822683,105.749091 C1.01019585,110.397623 5.13397146,113.810959 9.78169585,113.372586 L133.764608,101.683442 C138.41314,101.245069 141.825669,97.1221007 141.388103,92.473569 L141.241979,90.9283641 L0.42650561,104.203886 L0.571822683,105.749091 Z" id="Fill-56" fill="#874C1F"></path>
                <path d="M131.886304,81.76031 L7.90339195,93.4486466 C3.25566756,93.8870198 -0.157669024,98.0107954 0.280704146,102.659327 L0.42602122,104.203725 L141.242302,90.9282027 L141.096177,89.3838051 C140.658611,84.7352734 136.534836,81.3219368 131.886304,81.76031" id="Fill-58" fill="#9A5924"></path>
                <path d="M93.9877729,64.2035049 C94.0612388,65.0318122 93.4492924,65.7616268 92.6209851,65.8350927 C91.7934851,65.9085585 91.0628632,65.2966122 90.9893973,64.4683049 C90.9159315,63.6408049 91.5278778,62.9101829 92.3561851,62.8367171 C93.1836851,62.7640585 93.9143071,63.3751976 93.9877729,64.2035049" id="Fill-60" fill="#5D5D5D"></path>
                <path d="M119.70946,61.9146802 C119.782926,62.7429876 119.17098,63.4728022 118.342672,63.546268 C117.515172,63.6197339 116.78455,63.0077876 116.711084,62.1794802 C116.637619,61.3519802 117.249565,60.6213583 118.077872,60.5478924 C118.905372,60.4752339 119.635994,61.0863729 119.70946,61.9146802" id="Fill-62" fill="#5D5D5D"></path>
                <path d="M110.394797,68.8073112 C109.553573,69.7002039 108.123007,70.2927746 106.495456,70.3032698 C104.875978,70.3137649 103.44299,69.7454137 102.588848,68.8710893" id="Stroke-64" stroke="#5D5D5D" stroke-width="2.068" stroke-linecap="round"></path>
                <path d="M40.412678,25.6972254 L53.9344317,24.588779 C54.8709195,24.5120839 55.7008415,25.2152571 55.7775366,26.1525522 L55.7775366,26.1525522 C55.8542317,27.08904 55.1502512,27.918962 54.2137634,27.9956571 L40.6920098,29.1041034 C39.7547146,29.1807985 38.9256,28.4776254 38.8489049,27.5403302 C38.7722098,26.6038424 39.4753829,25.7739205 40.412678,25.6972254" id="Fill-66" fill="#5D5D5D"></path>
                <path d="M50.7185649,28.2803978 L50.5086624,25.724432 C50.0928941,20.6488295 55.0078405,16.0648832 61.4308551,15.5385124 L68.4311015,14.96451 C74.8541161,14.4381393 80.450438,18.159871 80.8662063,23.2354734 L81.0761088,25.7914393" id="Fill-68" fill="#F16021"></path>
                <path d="M66.7579368,26.9519576 L66.6570222,25.720799 C66.4568076,23.2762429 68.3531954,21.106982 70.8712173,20.9011161 L73.6160954,20.6758746 C76.1341173,20.4692015 78.3582759,22.3001966 78.5592978,24.74556 L78.6602124,25.9759112" id="Fill-70" fill="#A5462C"></path>
                <polyline id="Fill-72" fill="#F16021" points="64.8576739 23.6877324 78.3794276 22.5792861 78.6587593 25.9861641 65.1370056 27.0946105"></polyline>
                <path d="M134.747597,81.4905854 L4.7203022,93.7488878 C3.85324366,93.8304268 3.0846778,93.194261 3.00313878,92.3272024 L2.70685341,89.1883537 C2.62531439,88.3212951 3.26148024,87.5527293 4.12853878,87.4711902 L134.155834,75.2120805 C135.022892,75.1305415 135.791458,75.7667073 135.872997,76.6337659 L136.169283,79.773422 C136.250822,80.6396732 135.614656,81.4090463 134.747597,81.4905854" id="Fill-74" fill="#F05C48"></path>
                <polygon id="Fill-76" fill="#ED784A" points="71.9056327 87.4238815 57.9616522 88.7381937 57.3698888 82.4604961 71.3138693 81.1453766"></polygon>
                <polygon id="Fill-78" fill="#ED784A" points="83.6538722 86.3075234 78.3433405 86.80806 77.7507698 80.5295551 83.0621088 80.0290185"></polygon>
                <path d="M16.1570788,92.7126963 L29.3179617,97.3426598 C32.1403422,98.3356598 35.1984593,98.4446476 38.0846178,97.6534768 L77.0578495,86.9710573" id="Fill-80" fill="#F8DA47"></path>
                <path d="M1.97477829,111.973425 C11.371949,111.087798 11.8232393,115.873574 21.22041,114.987947 C30.618388,114.101513 30.1670978,109.315737 39.5650759,108.429303 C48.9630539,107.543676 49.4143441,112.329452 58.8131295,111.443825 C68.2111076,110.557391 67.7598173,105.771615 77.1577954,104.885181 C86.5565807,103.999554 87.007871,108.78533 96.405849,107.899703 C105.806249,107.013269 105.354959,102.227493 114.754551,101.341059 C124.154951,100.454625 124.606242,105.241208 134.005834,104.354774" id="Stroke-82" stroke="#8EC971" stroke-width="6.892" stroke-linecap="round"></path>
                <path d="M35.0522541,50.7894473 C35.6101102,50.7652278 36.0815834,51.1971424 36.1058029,51.7541912 C36.1308298,52.3120473 35.6989151,52.7835205 35.141059,52.8085473 C34.5840102,52.8327668 34.1117298,52.4008522 34.0875102,51.8429961 C34.0624834,51.2859473 34.494398,50.8136668 35.0522541,50.7894473" id="Fill-84" fill="#F3DABD"></path>
                <polyline id="Fill-86" fill="#F3DABD" points="36.6261188 51.479542 35.5774139 50.9111907 35.6533017 52.6412712 36.6503383 51.9808859"></polyline>
                <path d="M36.6998268,51.5194234 L35.9554805,51.1157649 C35.7891732,51.0261527 35.5881512,51.1512868 35.5962244,51.3410063 L35.6349756,52.2112941 C35.6430488,52.4002063 35.8545659,52.5083868 36.0119927,52.4034356 L36.7183951,51.935999 C36.870978,51.8350844 36.8612902,51.6066137 36.6998268,51.5194234" id="Fill-88" fill="#F3DABD"></path>
                <path d="M124.624568,58.2663337 C125.182424,58.2421141 125.653897,58.6740288 125.678117,59.2310776 C125.703143,59.7889337 125.271229,60.2604068 124.713373,60.2854337 C124.156324,60.3096532 123.684043,59.8777385 123.659824,59.3198824 C123.634797,58.7628337 124.066712,58.2905532 124.624568,58.2663337" id="Fill-90" fill="#F3DABD"></path>
                <polyline id="Fill-92" fill="#F3DABD" points="126.198432 58.9563476 125.149728 58.3879963 125.225615 60.1180768 126.222652 59.4576915"></polyline>
                <path d="M126.27214,58.9963098 L125.527794,58.5926512 C125.361487,58.503039 125.160465,58.6281732 125.168538,58.8178927 L125.207289,59.6881805 C125.215362,59.8770927 125.42688,59.9852732 125.584306,59.880322 L126.290709,59.4128854 C126.443292,59.3119707 126.433604,59.0835 126.27214,58.9963098" id="Fill-94" fill="#F3DABD"></path>
                <path d="M102.808196,38.0771098 C102.309274,38.3265707 101.702172,38.1239341 101.452711,37.6250122 C101.20325,37.1252829 101.405887,36.5189878 101.904809,36.2695268 C102.40373,36.0200659 103.010833,36.2227024 103.260294,36.7216244 C103.509755,37.2205463 103.307118,37.8276488 102.808196,38.0771098" id="Fill-96" fill="#F3DABD"></path>
                <polyline id="Fill-98" fill="#F3DABD" points="101.089741 38.0876856 102.278919 38.1797198 101.50551 36.6312856 100.862885 37.6396246"></polyline>
                <path d="M101.006103,38.0812271 L101.850557,38.1466198 C102.038662,38.1611515 102.171062,37.9641661 102.087101,37.7954368 L101.697167,37.0155685 C101.612398,36.846032 101.375854,36.8339222 101.274132,36.993771 L100.819613,37.7082466 C100.72112,37.8632515 100.822842,38.0666954 101.006103,38.0812271" id="Fill-100" fill="#F3DABD"></path>
                <path d="M34.7568568,67.8028473 C35.1863495,67.4468205 35.8233227,67.506562 36.1793495,67.9360546 C36.5353763,68.3655473 36.4764422,69.0025205 36.0461422,69.3585473 C35.6166495,69.7145741 34.9796763,69.65564 34.6236495,69.22534 C34.2676227,68.7958473 34.3273641,68.1588741 34.7568568,67.8028473" id="Fill-102" fill="#F3DABD"></path>
                <polyline id="Fill-104" fill="#F3DABD" points="36.4281646 67.4030639 35.2486744 67.5830956 36.3538915 68.9159761 36.7502841 67.7881541"></polyline>
                <path d="M36.5110761,67.390389 L35.6738883,67.5179451 C35.4865907,67.5470085 35.4026298,67.7682134 35.52292,67.9143378 L36.0791615,68.5852183 C36.200259,68.7305354 36.4335737,68.6893622 36.4965444,68.5101378 L36.7774907,67.7117012 C36.8380395,67.538128 36.6927224,67.3629402 36.5110761,67.390389" id="Fill-106" fill="#F3DABD"></path>
                <path d="M113.331413,47.3376824 C113.738301,47.7195434 113.758484,48.3589385 113.376623,48.7658263 C112.994762,49.1727141 112.355367,49.1928971 111.948479,48.8110361 C111.541591,48.4291751 111.521408,47.78978 111.903269,47.3828922 C112.28513,46.9760044 112.924525,46.9558215 113.331413,47.3376824" id="Fill-108" fill="#F3DABD"></path>
                <polyline id="Fill-110" fill="#F3DABD" points="113.936659 48.9460195 113.61131 47.798822 112.426168 49.0606585 113.594356 49.3141561"></polyline>
                <path d="M113.959506,49.0267512 L113.728613,48.2121683 C113.676945,48.030522 113.446052,47.9740098 113.316881,48.112061 L112.720274,48.7474195 C112.591103,48.8854707 112.66134,49.1115195 112.846215,49.1518854 L113.673715,49.3311098 C113.853747,49.369861 114.009559,49.2035537 113.959506,49.0267512" id="Fill-112" fill="#F3DABD"></path>
                <path d="M76.8291366,44.4122883 C77.3869927,44.411481 77.8398976,44.8635785 77.8407049,45.4214346 C77.8415122,45.980098 77.3894146,46.4321956 76.8315585,46.4330029 C76.2728951,46.4338102 75.8199902,45.9817127 75.8199902,45.4238566 C75.8191829,44.8660005 76.2712805,44.4130956 76.8291366,44.4122883" id="Fill-114" fill="#F3DABD"></path>
                <polyline id="Fill-116" fill="#F3DABD" points="78.3719195 45.1692288 77.3482415 44.5564751 77.3506634 46.2881702 78.3751488 45.67138"></polyline>
                <path d="M78.4438515,45.2123395 L77.7172661,44.7771956 C77.5549954,44.6803176 77.3491295,44.7973785 77.3491295,44.9862907 L77.3499368,45.8581932 C77.3499368,46.0471054 77.55661,46.163359 77.7188807,46.066481 L78.4446588,45.6297224 C78.6012783,45.5352663 78.6012783,45.3067956 78.4438515,45.2123395" id="Fill-118" fill="#F3DABD"></path>
                <path d="M39.6744673,34.6328529 C39.8779112,34.1129407 40.4640234,33.8570212 40.9839356,34.0604651 C41.5030405,34.263909 41.7597673,34.8500212 41.5563234,35.3699334 C41.3528795,35.8890383 40.7667673,36.1457651 40.2468551,35.9423212 C39.7269429,35.7388773 39.4710234,35.1527651 39.6744673,34.6328529" id="Fill-120" fill="#F3DABD"></path>
                <polyline id="Fill-122" fill="#F3DABD" points="40.9430046 33.4736263 39.9984437 34.2018263 41.6106559 34.8331483 41.4112485 33.6544654"></polyline>
                <path d="M41.0094468,33.4224424 L40.3385663,33.9399327 C40.1892127,34.055379 40.2223127,34.2903083 40.3991151,34.3589302 L41.2104688,34.6770132 C41.3864639,34.7456351 41.5705322,34.5962815 41.5390468,34.4097912 L41.3977663,33.574218 C41.3670883,33.393379 41.1547639,33.3102254 41.0094468,33.4224424" id="Fill-124" fill="#F3DABD"></path>
                <path d="M21.692529,50.1644224 C21.2929071,49.7752956 21.2848339,49.1350932 21.6739607,48.7354712 C22.0630876,48.3358493 22.70329,48.3277761 23.102912,48.7169029 C23.5025339,49.1068371 23.5106071,49.7462322 23.1214802,50.1458541 C22.7315461,50.5454761 22.092151,50.5535493 21.692529,50.1644224" id="Fill-126" fill="#F3DABD"></path>
                <polyline id="Fill-128" fill="#F3DABD" points="21.1176385 48.5449444 21.4219971 49.6986005 22.6297434 48.4585615 21.4663995 48.1832663"></polyline>
                <path d="M21.0962446,48.4638898 L21.3117983,49.2825093 C21.3602373,49.4657702 21.5895154,49.526319 21.7219154,49.3906898 L22.3298251,48.7666337 C22.4622251,48.6310044 22.3960251,48.403341 22.2119568,48.3597459 L21.3876861,48.1651824 C21.2084617,48.123202 21.0494202,48.28628 21.0962446,48.4638898" id="Fill-130" fill="#F3DABD"></path>
                <path d="M100.795151,55.986551 C100.422978,55.6240656 100.415712,55.0290729 100.778198,54.6568998 C101.140683,54.2847266 101.735676,54.2766534 102.107849,54.6391388 C102.480022,55.0016241 102.487288,55.5974241 102.124802,55.9695973 C101.762317,56.3409632 101.167324,56.3490363 100.795151,55.986551" id="Fill-132" fill="#F3DABD"></path>
                <polyline id="Fill-134" fill="#F3DABD" points="100.260142 54.4793707 100.54351 55.5531024 101.668103 54.398639 100.584684 54.1427195"></polyline>
                <path d="M100.240201,54.4038866 L100.441223,55.1659939 C100.485626,55.3363378 100.699565,55.3920427 100.822277,55.2661012 L101.388206,54.6856402 C101.510919,54.5588915 101.449562,54.3473744 101.278411,54.3070085 L100.51146,54.1253622 C100.345153,54.086611 100.196606,54.2383866 100.240201,54.4038866" id="Fill-136" fill="#F3DABD"></path>
                <path d="M14.6385961,64.7691112 C15.0131912,64.3557649 15.6525863,64.3242795 16.0659327,64.6988746 C16.479279,65.0742771 16.5107644,65.7128649 16.135362,66.1262112 C15.7607668,66.5403649 15.122179,66.5710429 14.7088327,66.1964478 C14.294679,65.8218527 14.264001,65.1824576 14.6385961,64.7691112" id="Fill-138" fill="#F3DABD"></path>
                <polyline id="Fill-140" fill="#F3DABD" points="16.2363573 64.1364168 15.094811 64.4819485 16.3776378 65.6444851 16.6101451 64.4722607"></polyline>
                <path d="M16.3166046,64.1121166 L15.5060583,64.357541 C15.3252193,64.4124385 15.2727437,64.6433312 15.4132168,64.77008 L16.0590705,65.3561922 C16.1987363,65.482941 16.4239778,65.4086678 16.4611144,65.2229849 L16.6258071,64.3922556 C16.661329,64.2122239 16.4925998,64.0588337 16.3166046,64.1121166" id="Fill-142" fill="#F3DABD"></path>
                <path d="M55.8416376,42.1051376 C56.0596132,42.6185912 55.81984,43.2119693 55.3063863,43.4299449 C54.7921254,43.6479205 54.1995546,43.4081473 53.981579,42.8946937 C53.7636034,42.3804327 54.0033766,41.787862 54.5168302,41.5698863 C55.0302839,41.3519107 55.623662,41.5916839 55.8416376,42.1051376" id="Fill-144" fill="#F3DABD"></path>
                <polyline id="Fill-146" fill="#F3DABD" points="55.7455668 43.8208478 55.9110668 42.6397429 54.3174229 43.3154673 55.2837815 44.0194478"></polyline>
                <path d="M55.7338607,43.9039207 L55.851729,43.0651183 C55.8775632,42.8778207 55.6894583,42.733311 55.5150778,42.8075841 L54.713412,43.148272 C54.5390315,43.2217378 54.5115827,43.4574744 54.6649729,43.5688841 L55.3495778,44.0669988 C55.4981241,44.1751793 55.7080266,44.0855671 55.7338607,43.9039207" id="Fill-148" fill="#F3DABD"></path>
                <path d="M84.4707963,29.1491517 C84.688772,29.6626054 84.4489988,30.2559834 83.9355451,30.473959 C83.4212841,30.6919346 82.8287134,30.4521615 82.6107378,29.9387078 C82.3927622,29.4244468 82.6325354,28.8318761 83.145989,28.6139005 C83.6594427,28.3959249 84.2528207,28.635698 84.4707963,29.1491517" id="Fill-150" fill="#F3DABD"></path>
                <polyline id="Fill-152" fill="#F3DABD" points="84.3747256 30.8649427 84.5402256 29.6838378 82.9465817 30.3595622 83.9129402 31.0635427"></polyline>
                <path d="M84.3630195,30.9480156 L84.4808878,30.1092132 C84.506722,29.9219156 84.3186171,29.7774059 84.1442366,29.851679 L83.3425707,30.1923668 C83.1681902,30.2658327 83.1407415,30.5015693 83.2941317,30.612979 L83.9787366,31.1110937 C84.1272829,31.2192741 84.3371854,31.129662 84.3630195,30.9480156" id="Fill-154" fill="#F3DABD"></path>
                <path d="M62.759699,31.343278 C62.3891405,31.760661 61.7505527,31.7986049 61.3331698,31.4288537 C60.9157868,31.0582951 60.8778429,30.4197073 61.2475941,30.0023244 C61.6181527,29.5849415 62.2567405,29.5461902 62.6741234,29.9167488 C63.0915063,30.2873073 63.1302576,30.9258951 62.759699,31.343278" id="Fill-156" fill="#F3DABD"></path>
                <polyline id="Fill-158" fill="#F3DABD" points="61.1689615 31.993249 62.3072785 31.6356076 61.0115346 30.4867954 60.7919444 31.6614417"></polyline>
                <path d="M61.0889563,32.0183566 L61.8970807,31.7640517 C62.0771124,31.7075395 62.1271661,31.4758395 61.9850783,31.349898 L61.3335734,30.771859 C61.1914856,30.6459176 60.9678588,30.72342 60.9323368,30.9091029 L60.7765246,31.7414468 C60.7426173,31.9222859 60.9137685,32.0732541 61.0889563,32.0183566" id="Fill-160" fill="#F3DABD"></path>
                <path d="M324.614364,37.0303424 L322.746232,56.8031522" id="Stroke-162" stroke="#DCDEE1" stroke-width="4" stroke-linecap="round"></path>
                <path d="M321.85665,63.6957024 L321.477211,67.7137195" id="Stroke-164" stroke="#DCDEE1" stroke-width="4" stroke-linecap="round"></path>
                <path d="M304.285313,11.4661629 L310.153701,12.1725654" id="Stroke-166" stroke="#FEFEFE" stroke-width="2" stroke-linecap="round"></path>
                <path d="M276.614682,8.13541488 L297.579091,10.659088" id="Stroke-168" stroke="#FEFEFE" stroke-width="2" stroke-linecap="round"></path>
                <polyline id="Stroke-170" stroke="#EAA345" stroke-width="6" stroke-linecap="round" stroke-linejoin="round" points="73.6990876 124.608906 66.56079 179.582355 75.7206095 180.313784"></polyline>
                <polyline id="Stroke-172" stroke="#F2AB43" stroke-width="6" stroke-linecap="round" stroke-linejoin="round" points="87.3240971 122.897394 83.0646922 178.167935 92.2503459 178.420625"></polyline>
                <path d="M202.509029,81.6891854 C203.062041,80.7220195 202.726198,79.488439 201.759032,78.9354268 L198.694456,77.1827415 C197.726483,76.6305366 196.494517,76.9655732 195.940698,77.9335463 C195.386878,78.9007122 195.722722,80.1342927 196.690695,80.6873049 L199.754463,82.4399902 C200.070932,82.620022 200.414849,82.7064049 200.754729,82.7064049 C201.45548,82.7064049 202.136049,82.3414976 202.509029,81.6891854 M194.368851,50.2571024 L196.903827,47.8012439 C197.704685,47.0262195 197.724868,45.7482366 196.949037,44.9481854 C196.174012,44.1473268 194.896029,44.1271439 194.095171,44.9021683 L191.560195,47.3580268 C190.760144,48.1338585 190.739154,49.4110341 191.514985,50.2118927 C191.910571,50.6203951 192.437749,50.826261 192.964927,50.826261 C193.470307,50.826261 193.976495,50.6373488 194.368851,50.2571024 M206.165368,63.6730976 C206.165368,62.559 205.261173,61.6548049 204.147076,61.6548049 L202.38228,61.6548049 C201.267376,61.6548049 200.363988,62.559 200.363988,63.6730976 C200.363988,64.7880024 201.267376,65.6913902 202.38228,65.6913902 L204.147076,65.6913902 C205.261173,65.6913902 206.165368,64.7880024 206.165368,63.6730976 M150.192461,67.0307293 C150.192461,65.9158244 149.288266,65.0124366 148.174168,65.0124366 L146.409373,65.0124366 C145.294468,65.0124366 144.39108,65.9158244 144.39108,67.0307293 C144.39108,68.1456341 145.294468,69.049022 146.409373,69.049022 L148.174168,69.049022 C149.288266,69.049022 150.192461,68.1456341 150.192461,67.0307293 M175.55029,48.7490341 C176.660351,48.6456976 177.476549,47.6623854 177.373212,46.5523244 L176.064551,32.4476878 C175.961215,31.3376268 174.980324,30.5190073 173.868649,30.6247659 C172.758588,30.7272951 171.94239,31.7114146 172.04492,32.8206683 L173.354388,46.9253049 C173.451266,47.9723951 174.331241,48.7571073 175.361378,48.7571073 C175.423541,48.7571073 175.48732,48.7546854 175.55029,48.7490341 M171.750249,94.1468951 L172.822366,90.6415244 C173.148522,89.5750585 172.548685,88.4464293 171.483027,88.1210805 C170.414139,87.7941171 169.287932,88.394761 168.962583,89.4604195 L167.889659,92.9657902 C167.56431,94.0322561 168.163339,95.160078 169.229805,95.4862341 C169.42679,95.5467829 169.62539,95.575039 169.820761,95.575039 C170.68459,95.575039 171.484641,95.0155683 171.750249,94.1468951 M184.327441,103.228405 C185.4262,103.037071 186.160859,101.991595 185.969524,100.893644 L184.260434,91.0742463 C184.0691,89.9762951 183.024432,89.2384073 181.925673,89.4321634 C180.827722,89.6234976 180.092256,90.6681659 180.28359,91.7661171 L181.993488,101.585515 C182.163832,102.567212 183.016359,103.258276 183.979488,103.258276 C184.094127,103.258276 184.21038,103.248588 184.327441,103.228405 M164.442415,54.849122 C163.730361,54.849122 163.040912,54.4721049 162.672776,53.805261 L158.635383,46.4804732 C158.09771,45.5044268 158.452122,44.2764976 159.428168,43.7388244 C160.405829,43.1995366 161.632951,43.5563707 162.170624,44.5316098 L166.208017,51.8563976 C166.74569,52.8324439 166.390471,54.0603732 165.415232,54.5980463 C165.106029,54.7683902 164.7718,54.849122 164.442415,54.849122" id="Fill-174"></path>
            </g>
        </g>
    </g>
</svg>